<svg width="18" height="18" viewBox="0 0 18 18" fill="none" xmlns="http://www.w3.org/2000/svg">
<path d="M7.33268 3.16667H10.666C10.666 2.72464 10.4904 2.30072 10.1779 1.98816C9.8653 1.67559 9.44138 1.5 8.99935 1.5C8.55732 1.5 8.1334 1.67559 7.82084 1.98816C7.50828 2.30072 7.33268 2.72464 7.33268 3.16667ZM6.08268 3.16667C6.08268 2.78364 6.15812 2.40437 6.3047 2.05051C6.45128 1.69664 6.66612 1.37511 6.93695 1.10427C7.20779 0.833434 7.52932 0.618594 7.88319 0.472018C8.23706 0.325442 8.61633 0.25 8.99935 0.25C9.38237 0.25 9.76164 0.325442 10.1155 0.472018C10.4694 0.618594 10.7909 0.833434 11.0617 1.10427C11.3326 1.37511 11.5474 1.69664 11.694 2.05051C11.8406 2.40437 11.916 2.78364 11.916 3.16667H16.7077C16.8734 3.16667 17.0324 3.23251 17.1496 3.34972C17.2668 3.46693 17.3327 3.62591 17.3327 3.79167C17.3327 3.95743 17.2668 4.1164 17.1496 4.23361C17.0324 4.35082 16.8734 4.41667 16.7077 4.41667H15.6077L14.6327 14.5092C14.5579 15.2825 14.1977 16.0002 13.6224 16.5224C13.0471 17.0445 12.2979 17.3336 11.521 17.3333H6.47768C5.7009 17.3334 4.95193 17.0442 4.37681 16.5221C3.80168 15.9999 3.44163 15.2823 3.36685 14.5092L2.39102 4.41667H1.29102C1.12526 4.41667 0.966284 4.35082 0.849074 4.23361C0.731864 4.1164 0.666016 3.95743 0.666016 3.79167C0.666016 3.62591 0.731864 3.46693 0.849074 3.34972C0.966284 3.23251 1.12526 3.16667 1.29102 3.16667H6.08268ZM7.74935 7.125C7.74935 6.95924 7.6835 6.80027 7.56629 6.68306C7.44908 6.56585 7.29011 6.5 7.12435 6.5C6.95859 6.5 6.79962 6.56585 6.68241 6.68306C6.5652 6.80027 6.49935 6.95924 6.49935 7.125V13.375C6.49935 13.5408 6.5652 13.6997 6.68241 13.8169C6.79962 13.9342 6.95859 14 7.12435 14C7.29011 14 7.44908 13.9342 7.56629 13.8169C7.6835 13.6997 7.74935 13.5408 7.74935 13.375V7.125ZM10.8743 6.5C11.0401 6.5 11.1991 6.56585 11.3163 6.68306C11.4335 6.80027 11.4993 6.95924 11.4993 7.125V13.375C11.4993 13.5408 11.4335 13.6997 11.3163 13.8169C11.1991 13.9342 11.0401 14 10.8743 14C10.7086 14 10.5496 13.9342 10.4324 13.8169C10.3152 13.6997 10.2493 13.5408 10.2493 13.375V7.125C10.2493 6.95924 10.3152 6.80027 10.4324 6.68306C10.5496 6.56585 10.7086 6.5 10.8743 6.5ZM4.61102 14.3892C4.65596 14.853 4.87205 15.2835 5.21716 15.5968C5.56226 15.91 6.01164 16.0834 6.47768 16.0833H11.521C11.9871 16.0834 12.4364 15.91 12.7815 15.5968C13.1266 15.2835 13.3427 14.853 13.3877 14.3892L14.3527 4.41667H3.64602L4.61102 14.3892Z" fill="#ED202A"/>
</svg>
