<svg width="20" height="20" viewBox="0 0 20 20" fill="none" xmlns="http://www.w3.org/2000/svg">
<path d="M5.625 16.875C5.97018 16.875 6.25 16.5952 6.25 16.25C6.25 15.9048 5.97018 15.625 5.625 15.625C5.27982 15.625 5 15.9048 5 16.25C5 16.5952 5.27982 16.875 5.625 16.875Z" fill="black"/>
<path d="M16.25 13.75H13.125V15H16.25V17.5H3.75V15H9.375C10.0625 15 10.625 14.4375 10.625 13.75V8.01875L12.2437 9.6375L13.125 8.75L10 5.625L6.875 8.75L7.75625 9.63125L9.375 8.01875V13.75H3.75C3.0625 13.75 2.5 14.3125 2.5 15V17.5C2.5 18.1875 3.0625 18.75 3.75 18.75H16.25C16.9375 18.75 17.5 18.1875 17.5 17.5V15C17.5 14.3125 16.9375 13.75 16.25 13.75Z" fill="black"/>
<path d="M14.8438 5.03125C14.2937 2.84375 12.2937 1.25 10 1.25C7.70625 1.25 5.70625 2.84375 5.15625 5.03125C3.30625 5.2625 1.875 6.84375 1.875 8.75C1.875 10.8188 3.55625 12.5 5.625 12.5H6.875V11.25H5.625C4.24375 11.25 3.125 10.1313 3.125 8.75C3.125 7.38125 4.23125 6.26875 5.59375 6.25L6.2125 6.2625L6.2875 5.7125C6.55625 3.88125 8.15 2.5 10 2.5C11.85 2.5 13.4438 3.88125 13.7063 5.71875L13.7812 6.26875L14.3313 6.25625L14.4125 6.25C15.069 6.25985 15.6953 6.52758 16.1561 6.99536C16.6168 7.46314 16.8751 8.09341 16.875 8.75C16.875 10.1313 15.7563 11.25 14.375 11.25H13.125V12.5H14.375C16.4438 12.5 18.125 10.8188 18.125 8.75C18.125 6.84375 16.6938 5.2625 14.8438 5.03125Z" fill="black"/>
</svg>
